<?xml version="1.0" encoding="UTF-8"?><svg id="_レイヤー_1" xmlns="http://www.w3.org/2000/svg" width="800" height="120" viewBox="0 0 800 120"><defs><style>.cls-1{fill:#fff;}.cls-2,.cls-3{fill:#383838;}.cls-3{font-family:NotoSansJP-Regular, 'Noto Sans JP';font-size:57.57px;font-variation-settings:'wght' 400;letter-spacing:.1em;}</style></defs><path class="cls-1" d="M614.15,85.35v-42.12c-2.59-1.4-3.9-3.08-3.9-5.01,0-6.24,14.03-9.08,27.07-9.08s27.07,2.84,27.07,9.08c0,1.75-1.08,3.3-3.21,4.61v42.51h-47.04Z"/><path class="cls-2" d="M637.33,31c13.92,0,25.21,3.23,25.21,7.22,0,1.28-1.17,2.48-3.21,3.53v41.74h-43.32v-41.41c-2.47-1.12-3.9-2.44-3.9-3.86,0-3.99,11.29-7.22,25.21-7.22M637.33,27.28c-2.96,0-28.93.31-28.93,10.94,0,1.71.73,4.03,3.9,6.07v42.92h50.76v-43.39c2.6-1.93,3.21-4.04,3.21-5.6,0-10.63-25.97-10.94-28.93-10.94h0Z"/><text class="cls-3" transform="translate(116.16 81.73)"><tspan x="0" y="0">Yoshida Misaki</tspan></text></svg>